<svg width="30" height="30" viewBox="0 0 30 30" fill="none" xmlns="http://www.w3.org/2000/svg">
<path fill-rule="evenodd" clip-rule="evenodd" d="M29.7827 23.4649C29.8482 23.8628 29.9027 24.1945 29.9444 24.4446C30.2363 26.0497 29.3121 27.1685 28.7284 26.8766V25.0283C28.6311 25.4661 28.4366 25.7093 28.1934 25.5147V23.3259L26.0046 16.0785L25.1777 21.7694C25.9559 23.4718 26.5396 25.5147 26.5396 27.6549V28.8709H22.1133C22.1133 28.8709 21.1892 24.931 20.8 22.8395C20.7757 22.7422 20.7514 22.6328 20.7271 22.5233C20.7028 22.4139 20.6784 22.3044 20.6541 22.2072C20.4596 21.0884 19.7786 20.5047 18.4167 19.8724C17.5411 19.4833 16.617 19.0455 16.2279 18.851C16.617 18.4132 16.8602 17.7809 17.0061 17.2458C17.6384 17.2458 17.9303 15.7866 17.3466 15.7866C17.5411 13.841 16.3251 12.9655 15.0605 12.9655C13.7958 12.9655 12.5798 13.7924 12.7744 15.7866C12.1907 15.7866 12.4826 17.2458 13.1149 17.2458C13.2608 17.7809 13.504 18.4132 13.8931 18.851C13.6667 18.9642 13.2425 19.1598 12.7644 19.3803C12.4211 19.5386 12.05 19.7098 11.7043 19.8724C10.3424 20.5047 9.71006 21.0884 9.46686 22.2072C8.88318 25.0283 8.05629 28.8709 8.05629 28.8709H5.86748C4.89468 28.8709 4.11643 28.0926 4.11643 27.1198V15.2516L2.2681 22.7908V24.8824C2.0249 25.0769 1.7817 24.8337 1.68442 24.3473V26.3416C1.0521 26.6821 -0.21255 25.1742 0.0306511 23.715C0.141491 23.1054 0.336524 21.9415 0.578445 20.4978C0.973501 18.1402 1.49359 15.0365 1.97626 12.3818C2.21946 10.9713 3.14363 10.1444 4.94332 9.31748C5.51624 9.04787 6.08916 8.75491 6.58119 8.50332C6.79929 8.39179 7.0015 8.28839 7.18077 8.19876C7.35173 8.08479 7.52268 8.0042 7.66431 7.93744C7.76445 7.89023 7.84993 7.84993 7.91037 7.80964C7.52125 7.32323 7.27805 6.64227 7.13213 6.05859C6.45117 6.05859 6.11068 4.35618 6.74301 4.35618C6.54845 2.02145 7.91037 1 9.36958 1C10.8288 1 11.9962 2.02145 11.9962 4.40482C11.9962 6.10723 11.2666 7.46915 10.8288 7.80964C11.1693 8.0042 11.9962 8.44196 12.9203 8.87972L13.7958 9.31748C15.1578 9.94981 16.0333 10.7281 16.4711 11.6036C16.9575 11.1172 17.4925 10.7767 18.1248 10.4849C18.8278 10.1334 19.3418 9.86585 19.6946 9.68229C19.8788 9.58643 20.019 9.51347 20.1191 9.46341C19.4868 8.87972 19.0004 7.85828 19.0004 6.15587C19.0004 3.77249 20.1191 2.99425 21.481 2.99425C22.8429 2.99425 24.1562 3.91842 23.9617 6.05859C24.5453 6.05859 24.2535 7.71236 23.5725 7.71236C23.4266 8.29604 23.1834 8.92836 22.8429 9.41477C23.1348 9.60933 23.7671 9.94981 24.8372 10.4362C27.1233 11.5063 27.9015 12.6737 28.2906 14.7652C28.8952 18.0699 29.4663 21.5417 29.7827 23.4649ZM9.75879 28.9195H11.4612V23.6177L9.75879 28.9195ZM18.709 28.9195H20.4114L18.709 23.6177V28.9195Z" fill="#003087"/>
</svg>
