<svg width="30" height="30" viewBox="0 0 30 30" fill="none" xmlns="http://www.w3.org/2000/svg">
<path fill-rule="evenodd" clip-rule="evenodd" d="M29.5238 9.38253L19.9117 3.72345L10.2996 9.38253C10.0499 9.54898 10.0083 9.84025 10.1331 10.0899C10.2163 10.2564 10.3828 10.3396 10.5492 10.3396C10.6101 10.3396 10.6711 10.3173 10.7483 10.289C10.7766 10.2787 10.807 10.2675 10.8405 10.2564L19.9117 4.84694L28.9829 10.2564C29.0661 10.298 29.1493 10.3396 29.2741 10.3396C29.4406 10.3396 29.607 10.2564 29.6902 10.0899C29.8151 9.84025 29.7735 9.50737 29.5238 9.38253ZM11.4646 13.2108L0.687423 16.7893C0.604201 16.8309 0.479369 16.8309 0.396147 16.7893C0.229703 16.7477 0.10487 16.6229 0.0216485 16.4564C-0.0615734 16.2068 0.10487 15.9155 0.354536 15.7907L11.423 12.1289V13.2108H11.4646ZM27.4021 16.498L29.982 17.2053C29.982 17.2053 30.0236 25.4859 29.982 25.5275V26.2765H21.9927V21.3664C21.9927 20.2429 21.0772 19.3275 19.9537 19.3275C18.8302 19.3275 17.9148 20.2429 17.9148 21.3664V26.2765H2.43555V17.2053L12.4638 13.9597V10.3812L19.9121 5.9704L27.4021 10.3812V16.498ZM5.14026 23.3638H15.0437V19.5356H5.14026V23.3638ZM16.6249 14.7087H19.3296V10.0483H16.6249V14.7087ZM20.5363 14.7087H23.241V10.0483H20.5363V14.7087ZM23.6571 22.2403H27.4021V19.5356H23.6571V22.2403Z" fill="#003087"/>
</svg>
