<svg width="30" height="30" viewBox="0 0 30 30" fill="none" xmlns="http://www.w3.org/2000/svg">
<path fill-rule="evenodd" clip-rule="evenodd" d="M26.738 14.575C27.0005 15.2875 27.6005 15.8125 29.138 15.8125H30.0005V17.0125C30.0005 17.9875 29.1755 18.475 28.1255 18.475H26.963V18.175C26.963 16.4875 25.613 15.1375 23.9255 15.1375C22.238 15.1375 20.888 16.4875 20.888 18.175V18.475H20.2505H10.1255H9.48799V18.175C9.48799 16.4875 8.13799 15.1375 6.45049 15.1375C4.76299 15.1375 3.41299 16.4875 3.41299 18.175V18.475H2.77549H2.28799C0.862988 18.475 0.000488281 18.0625 0.000488281 16.2625V15.1375H0.562988C1.80049 15.1375 1.91299 13.9375 1.91299 13.9375H0.000488281V13.4125C0.000488281 13 0.112988 12.775 0.637988 12.775H1.38799C2.58799 12.775 3.03799 12.5875 4.23799 12.025C7.57549 10.6 9.56299 10 13.2755 10C16.6505 10 18.9005 10.675 22.088 12.775C26.4755 13.0375 29.7005 13.975 29.7005 14.575H26.738ZM7.80049 13H12.713V10.75H12.3755C10.838 10.75 9.15049 10.9375 7.46299 11.725C6.75049 12.0625 7.01299 13 7.80049 13ZM13.5755 10.75V13H20.7755C18.3005 11.0875 15.788 10.75 13.8005 10.75H13.5755ZM6.45029 20.3875C5.21279 20.3875 4.23779 19.375 4.23779 18.175C4.23779 16.9375 5.25029 15.9625 6.45029 15.9625C7.68779 15.9625 8.66279 16.975 8.66279 18.175C8.66279 19.375 7.65029 20.3875 6.45029 20.3875ZM6.45029 16.9C5.73779 16.9 5.17529 17.4625 5.17529 18.175C5.17529 18.8875 5.73779 19.45 6.45029 19.45C7.16279 19.45 7.72529 18.8875 7.72529 18.175C7.68779 17.4625 7.12529 16.9 6.45029 16.9ZM23.8858 20.3875C22.6483 20.3875 21.6733 19.375 21.6733 18.175C21.6733 16.9375 22.6858 15.9625 23.8858 15.9625C25.1233 15.9625 26.0983 16.975 26.0983 18.175C26.0983 19.375 25.0858 20.3875 23.8858 20.3875ZM23.8858 16.9C23.1733 16.9 22.6108 17.4625 22.6108 18.175C22.6108 18.8875 23.1733 19.45 23.8858 19.45C24.5983 19.45 25.1608 18.8875 25.1608 18.175C25.1233 17.4625 24.5608 16.9 23.8858 16.9Z" fill="#003087"/>
</svg>
