<svg width="30" height="30" viewBox="0 0 30 30" fill="none" xmlns="http://www.w3.org/2000/svg">
<path d="M30.0005 10.203V10.4145C29.9969 11.611 28.9247 12.5804 27.6 12.5804V24H10.5008V12.4183C10.2224 12.5208 9.9192 12.5804 9.60161 12.5804C8.88262 12.5804 8.24061 12.2943 7.80073 11.8423C7.36085 12.2943 6.71847 12.5804 6.00056 12.5804C5.68189 12.5804 5.37833 12.5208 5.1003 12.4183V24H2.40059V12.5804C1.07699 12.5804 0.00372534 11.611 0.000488281 10.4145V10.203H30.0005ZM22.2006 11.8423C21.7611 12.2943 21.1198 12.5804 20.4008 12.5804C19.6825 12.5804 19.0398 12.2943 18.6014 11.8423C18.1611 12.2943 17.5191 12.5804 16.8008 12.5804C16.0829 12.5804 15.4405 12.2943 15.0003 11.8423C14.5611 12.2943 13.9188 12.5804 13.2009 12.5804V20.47H24.9007V12.4183C24.6219 12.5208 24.3205 12.5804 24.0008 12.5804C23.2825 12.5804 22.6408 12.2943 22.2006 11.8423ZM27.6001 5L29.7927 9.34736H0.208092L2.40066 5H27.6001Z" fill="#003087"/>
</svg>
