<?xml version="1.0" encoding="UTF-8"?>
<!-- QR target: https://allsberryagency.com/ -->
<svg height="1024" width="1024" viewBox="0 0 33 33" role="img"><title>Allsberry Insurance Agency landing page QR code</title><path fill="#ffffff" d="M0,0 h33v33H0z" shape-rendering="crispEdges"></path><path fill="#00205C" d="M4 4h7v1H4zM13 4h3v1H13zM17 4h2v1H17zM22,4 h7v1H22zM4 5h1v1H4zM10 5h1v1H10zM15 5h2v1H15zM20 5h1v1H20zM22 5h1v1H22zM28,5 h1v1H28zM4 6h1v1H4zM6 6h3v1H6zM10 6h1v1H10zM13 6h3v1H13zM18 6h2v1H18zM22 6h1v1H22zM24 6h3v1H24zM28,6 h1v1H28zM4 7h1v1H4zM6 7h3v1H6zM10 7h1v1H10zM12 7h1v1H12zM14 7h4v1H14zM19 7h1v1H19zM22 7h1v1H22zM24 7h3v1H24zM28,7 h1v1H28zM4 8h1v1H4zM6 8h3v1H6zM10 8h1v1H10zM12 8h1v1H12zM14 8h1v1H14zM16 8h1v1H16zM20 8h1v1H20zM22 8h1v1H22zM24 8h3v1H24zM28,8 h1v1H28zM4 9h1v1H4zM10 9h1v1H10zM13 9h2v1H13zM17 9h2v1H17zM22 9h1v1H22zM28,9 h1v1H28zM4 10h7v1H4zM12 10h1v1H12zM14 10h1v1H14zM16 10h1v1H16zM18 10h1v1H18zM20 10h1v1H20zM22,10 h7v1H22zM13 11h1v1H13zM15 11h1v1H15zM18 11h2v1H18zM4 12h2v1H4zM9 12h3v1H9zM13 12h8v1H13zM24 12h2v1H24zM4 13h3v1H4zM9 13h1v1H9zM14 13h3v1H14zM18 13h2v1H18zM23 13h5v1H23zM6 14h1v1H6zM8 14h6v1H8zM18 14h2v1H18zM21 14h1v1H21zM23 14h1v1H23zM25 14h1v1H25zM27,14 h2v1H27zM4 15h1v1H4zM6 15h1v1H6zM8 15h2v1H8zM12 15h1v1H12zM14 15h1v1H14zM18 15h2v1H18zM22 15h1v1H22zM25 15h1v1H25zM28,15 h1v1H28zM4 16h1v1H4zM9 16h6v1H9zM16 16h1v1H16zM19 16h1v1H19zM22 16h2v1H22zM28,16 h1v1H28zM4 17h2v1H4zM9 17h1v1H9zM11 17h5v1H11zM17 17h1v1H17zM19 17h2v1H19zM23 17h1v1H23zM27 17h1v1H27zM4 18h1v1H4zM8 18h1v1H8zM10 18h1v1H10zM12 18h2v1H12zM17 18h5v1H17zM23 18h3v1H23zM27,18 h2v1H27zM4 19h1v1H4zM13 19h1v1H13zM15 19h1v1H15zM18 19h1v1H18zM22 19h2v1H22zM25 19h2v1H25zM28,19 h1v1H28zM4 20h1v1H4zM6 20h2v1H6zM9 20h2v1H9zM12 20h13v1H12zM26 20h1v1H26zM12 21h4v1H12zM20 21h1v1H20zM24 21h1v1H24zM4 22h7v1H4zM12 22h1v1H12zM14 22h2v1H14zM18 22h1v1H18zM20 22h1v1H20zM22 22h1v1H22zM24 22h1v1H24zM28,22 h1v1H28zM4 23h1v1H4zM10 23h1v1H10zM12 23h2v1H12zM15 23h2v1H15zM18 23h3v1H18zM24 23h1v1H24zM28,23 h1v1H28zM4 24h1v1H4zM6 24h3v1H6zM10 24h1v1H10zM13 24h1v1H13zM16 24h9v1H16zM26 24h2v1H26zM4 25h1v1H4zM6 25h3v1H6zM10 25h1v1H10zM13 25h3v1H13zM17 25h1v1H17zM21 25h2v1H21zM27,25 h2v1H27zM4 26h1v1H4zM6 26h3v1H6zM10 26h1v1H10zM14 26h1v1H14zM16 26h1v1H16zM19 26h1v1H19zM21 26h1v1H21zM25 26h2v1H25zM28,26 h1v1H28zM4 27h1v1H4zM10 27h1v1H10zM12 27h1v1H12zM15 27h1v1H15zM18 27h1v1H18zM20 27h1v1H20zM22 27h3v1H22zM28,27 h1v1H28zM4 28h7v1H4zM12 28h3v1H12zM16 28h1v1H16zM18 28h1v1H18zM20 28h1v1H20zM25 28h1v1H25zM28,28 h1v1H28z" shape-rendering="crispEdges"></path></svg>
